{
  "accessors": [
    {
      "bufferView": 2,
      "componentType": 5126,
      "count": 65533,
      "max": [
        2.5199999809265137,
        1.8362990617752075,
        3.119999647140503
      ],
      "min": [
        -2.5280001163482666,
        0.032299112528562546,
        -3.0980000495910645
      ],
      "type": "VEC3"
    },
    {
      "bufferView": 2,
      "byteOffset": 786396,
      "componentType": 5126,
      "count": 65533,
      "max": [
        1.0,
        1.0,
        1.0
      ],
      "min": [
        -1.0,
        -1.0,
        -1.0
      ],
      "type": "VEC3"
    },
    {
      "bufferView": 1,
      "componentType": 5126,
      "count": 65533,
      "max": [
        0.9992499947547913,
        0.5036599636077881
      ],
      "min": [
        0.07356999814510345,
        0.08346998691558838
      ],
      "type": "VEC2"
    },
    {
      "bufferView": 0,
      "componentType": 5125,
      "count": 66159,
      "type": "SCALAR"
    },
    {
      "bufferView": 2,
      "byteOffset": 1572792,
      "componentType": 5126,
      "count": 65533,
      "max": [
        0.9539999961853027,
        1.6442991495132446,
        1.6739999055862427
      ],
      "min": [
        -2.180000066757202,
        0.0422990657389164,
        -3.131999969482422
      ],
      "type": "VEC3"
    },
    {
      "bufferView": 2,
      "byteOffset": 2359188,
      "componentType": 5126,
      "count": 65533,
      "max": [
        1.0,
        1.0,
        1.0
      ],
      "min": [
        -1.0,
        -0.9486857652664185,
        -0.9838699698448181
      ],
      "type": "VEC3"
    },
    {
      "bufferView": 1,
      "byteOffset": 524264,
      "componentType": 5126,
      "count": 65533,
      "max": [
        0.9128999710083008,
        0.2881699800491333
      ],
      "min": [
        0.09324000030755997,
        0.08345997333526611
      ],
      "type": "VEC2"
    },
    {
      "bufferView": 0,
      "byteOffset": 264636,
      "componentType": 5125,
      "count": 66222,
      "type": "SCALAR"
    },
    {
      "bufferView": 2,
      "byteOffset": 3145584,
      "componentType": 5126,
      "count": 65533,
      "max": [
        2.2920000553131104,
        1.8382991552352905,
        2.2160000801086426
      ],
      "min": [
        -2.187999963760376,
        0.030299080535769463,
        -2.3359999656677246
      ],
      "type": "VEC3"
    },
    {
      "bufferView": 2,
      "byteOffset": 3931980,
      "componentType": 5126,
      "count": 65533,
      "max": [
        1.0,
        1.0,
        1.0
      ],
      "min": [
        -1.0,
        -1.0,
        -1.0
      ],
      "type": "VEC3"
    },
    {
      "bufferView": 1,
      "byteOffset": 1048528,
      "componentType": 5126,
      "count": 65533,
      "max": [
        0.8719599843025208,
        0.28856998682022095
      ],
      "min": [
        0.13305999338626862,
        0.08720999956130981
      ],
      "type": "VEC2"
    },
    {
      "bufferView": 0,
      "byteOffset": 529524,
      "componentType": 5125,
      "count": 66261,
      "type": "SCALAR"
    },
    {
      "bufferView": 2,
      "byteOffset": 4718376,
      "componentType": 5126,
      "count": 65534,
      "max": [
        1.9259999990463257,
        1.8382991552352905,
        1.3859999179840088
      ],
      "min": [
        -2.6480000019073486,
        0.034299079328775406,
        -3.049999952316284
      ],
      "type": "VEC3"
    },
    {
      "bufferView": 2,
      "byteOffset": 5504784,
      "componentType": 5126,
      "count": 65534,
      "max": [
        1.0,
        1.0,
        1.0
      ],
      "min": [
        -1.0,
        -0.9847286939620972,
        -1.0
      ],
      "type": "VEC3"
    },
    {
      "bufferView": 1,
      "byteOffset": 1572792,
      "componentType": 5126,
      "count": 65534,
      "max": [
        0.9956600069999695,
        0.503849983215332
      ],
      "min": [
        0.0006300000241026282,
        0.0006499886512756348
      ],
      "type": "VEC2"
    },
    {
      "bufferView": 0,
      "byteOffset": 794568,
      "componentType": 5125,
      "count": 66660,
      "type": "SCALAR"
    },
    {
      "bufferView": 2,
      "byteOffset": 6291192,
      "componentType": 5126,
      "count": 65532,
      "max": [
        1.9359999895095825,
        1.81429922580719,
        2.985999822616577
      ],
      "min": [
        -1.1160000562667847,
        0.08629903197288513,
        -2.1740002632141113
      ],
      "type": "VEC3"
    },
    {
      "bufferView": 2,
      "byteOffset": 7077576,
      "componentType": 5126,
      "count": 65532,
      "max": [
        1.0,
        1.0,
        1.0
      ],
      "min": [
        -1.0,
        -0.9802089333534241,
        -1.0
      ],
      "type": "VEC3"
    },
    {
      "bufferView": 1,
      "byteOffset": 2097064,
      "componentType": 5126,
      "count": 65532,
      "max": [
        0.9386900067329407,
        0.4859600067138672
      ],
      "min": [
        0.0006300000241026282,
        0.0006499886512756348
      ],
      "type": "VEC2"
    },
    {
      "bufferView": 0,
      "byteOffset": 1061208,
      "componentType": 5125,
      "count": 66549,
      "type": "SCALAR"
    },
    {
      "bufferView": 2,
      "byteOffset": 7863960,
      "componentType": 5126,
      "count": 65534,
      "max": [
        1.934000015258789,
        1.8322992324829102,
        1.9939998388290405
      ],
      "min": [
        -1.7419999837875366,
        0.040299080312252045,
        -2.6540002822875977
      ],
      "type": "VEC3"
    },
    {
      "bufferView": 2,
      "byteOffset": 8650368,
      "componentType": 5126,
      "count": 65534,
      "max": [
        1.0,
        1.0,
        1.0
      ],
      "min": [
        -1.0,
        -1.0,
        -1.0
      ],
      "type": "VEC3"
    },
    {
      "bufferView": 1,
      "byteOffset": 2621320,
      "componentType": 5126,
      "count": 65534,
      "max": [
        0.5497599840164185,
        0.11921000480651855
      ],
      "min": [
        0.0006300000241026282,
        0.0006099939346313477
      ],
      "type": "VEC2"
    },
    {
      "bufferView": 0,
      "byteOffset": 1327404,
      "componentType": 5125,
      "count": 66333,
      "type": "SCALAR"
    },
    {
      "bufferView": 2,
      "byteOffset": 9436776,
      "componentType": 5126,
      "count": 65532,
      "max": [
        1.3179999589920044,
        1.8302991390228271,
        3.0419998168945313
      ],
      "min": [
        -1.8539999723434448,
        0.09029896557331085,
        -1.5000001192092896
      ],
      "type": "VEC3"
    },
    {
      "bufferView": 2,
      "byteOffset": 10223160,
      "componentType": 5126,
      "count": 65532,
      "max": [
        1.0,
        1.0,
        1.0
      ],
      "min": [
        -1.0,
        -0.7844477295875549,
        -1.0
      ],
      "type": "VEC3"
    },
    {
      "bufferView": 1,
      "byteOffset": 3145592,
      "componentType": 5126,
      "count": 65532,
      "max": [
        0.6196600198745728,
        0.6237499713897705
      ],
      "min": [
        0.0007200000109151006,
        0.024160027503967285
      ],
      "type": "VEC2"
    },
    {
      "bufferView": 0,
      "byteOffset": 1592736,
      "componentType": 5125,
      "count": 66753,
      "type": "SCALAR"
    },
    {
      "bufferView": 2,
      "byteOffset": 11009544,
      "componentType": 5126,
      "count": 65533,
      "max": [
        2.6559998989105225,
        1.7482990026474,
        3.0839998722076416
      ],
      "min": [
        -2.361999988555908,
        0.0682993158698082,
        -2.0460000038146973
      ],
      "type": "VEC3"
    },
    {
      "bufferView": 2,
      "byteOffset": 11795940,
      "componentType": 5126,
      "count": 65533,
      "max": [
        1.0,
        1.0,
        1.0
      ],
      "min": [
        -1.0,
        -1.0,
        -1.0
      ],
      "type": "VEC3"
    },
    {
      "bufferView": 1,
      "byteOffset": 3669848,
      "componentType": 5126,
      "count": 65533,
      "max": [
        0.8819199800491333,
        0.5036300420761108
      ],
      "min": [
        0.18020999431610107,
        0.12060999870300293
      ],
      "type": "VEC2"
    },
    {
      "bufferView": 0,
      "byteOffset": 1859748,
      "componentType": 5125,
      "count": 67860,
      "type": "SCALAR"
    },
    {
      "bufferView": 2,
      "byteOffset": 12582336,
      "componentType": 5126,
      "count": 65534,
      "max": [
        2.002000093460083,
        1.8382991552352905,
        2.687999725341797
      ],
      "min": [
        -0.8560000061988831,
        0.04029905050992966,
        -2.8480000495910645
      ],
      "type": "VEC3"
    },
    {
      "bufferView": 2,
      "byteOffset": 13368744,
      "componentType": 5126,
      "count": 65534,
      "max": [
        1.0,
        1.0,
        1.0
      ],
      "min": [
        -1.0,
        -1.0,
        -1.0
      ],
      "type": "VEC3"
    },
    {
      "bufferView": 1,
      "byteOffset": 4194112,
      "componentType": 5126,
      "count": 65534,
      "max": [
        0.9865599870681763,
        0.386680006980896
      ],
      "min": [
        0.09317000210285187,
        0.12063002586364746
      ],
      "type": "VEC2"
    },
    {
      "bufferView": 0,
      "byteOffset": 2131188,
      "componentType": 5125,
      "count": 67002,
      "type": "SCALAR"
    },
    {
      "bufferView": 2,
      "byteOffset": 14155152,
      "componentType": 5126,
      "count": 7914,
      "max": [
        0.6140000224113464,
        1.5282996892929077,
        -2.430000066757202
      ],
      "min": [
        -0.7200000286102295,
        0.7142996191978455,
        -3.049999952316284
      ],
      "type": "VEC3"
    },
    {
      "bufferView": 2,
      "byteOffset": 14250120,
      "componentType": 5126,
      "count": 7914,
      "max": [
        1.0,
        1.0,
        1.0
      ],
      "min": [
        -1.0,
        -0.8319434523582458,
        -0.43013811111450195
      ],
      "type": "VEC3"
    },
    {
      "bufferView": 1,
      "byteOffset": 4718384,
      "componentType": 5126,
      "count": 7914,
      "max": [
        0.41604000329971313,
        0.2635200023651123
      ],
      "min": [
        0.37863001227378845,
        0.22153997421264648
      ],
      "type": "VEC2"
    },
    {
      "bufferView": 0,
      "byteOffset": 2399196,
      "componentType": 5125,
      "count": 7944,
      "type": "SCALAR"
    }
  ],
  "asset": {
    "extras": {
      "author": "seirogan (https://sketchfab.com/seirogan)",
      "license": "CC-BY-4.0 (http://creativecommons.org/licenses/by/4.0/)",
      "source": "https://sketchfab.com/3d-models/tsukubai-scans-with-iphone12-pro-221c585db12b4b15be758b293f542975",
      "title": "Tsukubai scans with iPhone12 Pro"
    },
    "generator": "Sketchfab-12.66.0",
    "version": "2.0"
  },
  "bufferViews": [
    {
      "buffer": 0,
      "byteLength": 2430972,
      "name": "floatBufferViews",
      "target": 34963
    },
    {
      "buffer": 0,
      "byteLength": 4781696,
      "byteOffset": 2430972,
      "byteStride": 8,
      "name": "floatBufferViews",
      "target": 34962
    },
    {
      "buffer": 0,
      "byteLength": 14345088,
      "byteOffset": 7212668,
      "byteStride": 12,
      "name": "floatBufferViews",
      "target": 34962
    }
  ],
  "buffers": [
    {
      "byteLength": 21557756,
      "uri": "scene.bin"
    }
  ],
  "extensionsUsed": [
    "KHR_materials_unlit"
  ],
  "images": [
    {
      "uri": "textures/material_0_baseColor.jpeg"
    }
  ],
  "materials": [
    {
      "doubleSided": true,
      "extensions": {
        "KHR_materials_unlit": {}
      },
      "name": "material_0",
      "pbrMetallicRoughness": {
        "baseColorTexture": {
          "index": 0
        },
        "metallicFactor": 0.0
      }
    }
  ],
  "meshes": [
    {
      "name": "Object_0",
      "primitives": [
        {
          "attributes": {
            "NORMAL": 1,
            "POSITION": 0,
            "TEXCOORD_0": 2
          },
          "indices": 3,
          "material": 0,
          "mode": 4
        }
      ]
    },
    {
      "name": "Object_1",
      "primitives": [
        {
          "attributes": {
            "NORMAL": 5,
            "POSITION": 4,
            "TEXCOORD_0": 6
          },
          "indices": 7,
          "material": 0,
          "mode": 4
        }
      ]
    },
    {
      "name": "Object_2",
      "primitives": [
        {
          "attributes": {
            "NORMAL": 9,
            "POSITION": 8,
            "TEXCOORD_0": 10
          },
          "indices": 11,
          "material": 0,
          "mode": 4
        }
      ]
    },
    {
      "name": "Object_3",
      "primitives": [
        {
          "attributes": {
            "NORMAL": 13,
            "POSITION": 12,
            "TEXCOORD_0": 14
          },
          "indices": 15,
          "material": 0,
          "mode": 4
        }
      ]
    },
    {
      "name": "Object_4",
      "primitives": [
        {
          "attributes": {
            "NORMAL": 17,
            "POSITION": 16,
            "TEXCOORD_0": 18
          },
          "indices": 19,
          "material": 0,
          "mode": 4
        }
      ]
    },
    {
      "name": "Object_5",
      "primitives": [
        {
          "attributes": {
            "NORMAL": 21,
            "POSITION": 20,
            "TEXCOORD_0": 22
          },
          "indices": 23,
          "material": 0,
          "mode": 4
        }
      ]
    },
    {
      "name": "Object_6",
      "primitives": [
        {
          "attributes": {
            "NORMAL": 25,
            "POSITION": 24,
            "TEXCOORD_0": 26
          },
          "indices": 27,
          "material": 0,
          "mode": 4
        }
      ]
    },
    {
      "name": "Object_7",
      "primitives": [
        {
          "attributes": {
            "NORMAL": 29,
            "POSITION": 28,
            "TEXCOORD_0": 30
          },
          "indices": 31,
          "material": 0,
          "mode": 4
        }
      ]
    },
    {
      "name": "Object_8",
      "primitives": [
        {
          "attributes": {
            "NORMAL": 33,
            "POSITION": 32,
            "TEXCOORD_0": 34
          },
          "indices": 35,
          "material": 0,
          "mode": 4
        }
      ]
    },
    {
      "name": "Object_9",
      "primitives": [
        {
          "attributes": {
            "NORMAL": 37,
            "POSITION": 36,
            "TEXCOORD_0": 38
          },
          "indices": 39,
          "material": 0,
          "mode": 4
        }
      ]
    }
  ],
  "nodes": [
    {
      "children": [
        1
      ],
      "matrix": [
        1.0,
        0.0,
        0.0,
        0.0,
        0.0,
        2.220446049250313e-16,
        -1.0,
        0.0,
        0.0,
        1.0,
        2.220446049250313e-16,
        0.0,
        0.0,
        0.0,
        0.0,
        1.0
      ],
      "name": "Sketchfab_model"
    },
    {
      "children": [
        2
      ],
      "name": "root"
    },
    {
      "children": [
        3
      ],
      "matrix": [
        1.0,
        0.0,
        0.0,
        0.0,
        0.0,
        2.220446049250313e-16,
        1.0,
        0.0,
        0.0,
        -1.0,
        2.220446049250313e-16,
        0.0,
        0.0,
        0.0,
        0.0,
        1.0
      ],
      "name": "GLTF_SceneRootNode"
    },
    {
      "children": [
        4,
        5,
        6,
        7,
        8,
        9,
        10,
        11,
        12,
        13
      ],
      "name": "textured_output_2"
    },
    {
      "mesh": 0,
      "name": "Object_4"
    },
    {
      "mesh": 1,
      "name": "Object_5"
    },
    {
      "mesh": 2,
      "name": "Object_6"
    },
    {
      "mesh": 3,
      "name": "Object_7"
    },
    {
      "mesh": 4,
      "name": "Object_8"
    },
    {
      "mesh": 5,
      "name": "Object_9"
    },
    {
      "mesh": 6,
      "name": "Object_10"
    },
    {
      "mesh": 7,
      "name": "Object_11"
    },
    {
      "mesh": 8,
      "name": "Object_12"
    },
    {
      "mesh": 9,
      "name": "Object_13"
    }
  ],
  "samplers": [
    {
      "magFilter": 9729,
      "minFilter": 9987,
      "wrapS": 10497,
      "wrapT": 10497
    }
  ],
  "scene": 0,
  "scenes": [
    {
      "name": "Sketchfab_Scene",
      "nodes": [
        0
      ]
    }
  ],
  "textures": [
    {
      "sampler": 0,
      "source": 0
    }
  ]
}
